<svg xmlns="http://www.w3.org/2000/svg" version="1.1" xmlns:xlink="http://www.w3.org/1999/xlink" xmlns:svgjs="http://svgjs.com/svgjs" height="171.68299102783203" width="256.5400085449219"><defs id="SvgjsDefs1595"></defs><g id="SvgjsG1596" rel="mainfill" name="main_text" xmlns:name="main_text" transform="translate(-2.1500000953674316,-74.9170150756836)" fill="#ffffff"><path d="M20.64 240.80L24.99 238.27L22.14 233.07L22.14 225.49C22.14 219.55 18.07 215.80 11.70 215.80C7.58 215.80 4.77 216.64 4.77 216.64L5.29 221.32C5.29 221.32 8.38 220.58 11.00 220.58C14.70 220.58 16.38 222.07 16.48 224.98L16.48 235.27ZM5.99 226.61C5.99 226.61 2.15 228.53 2.15 233.12C2.15 237.43 4.73 240.80 10.48 240.80C13.81 240.80 15.96 239.02 15.96 239.02L14.14 235.27C14.14 235.27 12.68 236.02 10.81 236.02C8.14 236.02 7.40 234.48 7.40 232.70C7.40 231.72 7.72 230.92 8.14 230.31L14.14 229.19L14.14 225.54ZM43.67 240L49.29 240L49.29 204.85L43.67 204.85ZM41.00 235.13C41.00 235.13 39.55 235.69 38.47 235.69C35.85 235.69 33.98 233.73 33.98 228.49C33.98 223.48 36.41 220.67 40.53 220.67C40.95 220.67 41.38 220.72 41.38 220.72L41.80 215.90C41.80 215.90 41.23 215.80 40.63 215.80C33.61 215.80 28.41 221.04 28.41 229.05C28.41 237.00 32.58 240.80 37.58 240.80C39.64 240.80 42.03 239.30 42.03 239.30ZM73.76 240.80L78.12 238.27L75.26 233.07L75.26 225.49C75.26 219.55 71.19 215.80 64.82 215.80C60.71 215.80 57.90 216.64 57.90 216.64L58.41 221.32C58.41 221.32 61.50 220.58 64.12 220.58C67.82 220.58 69.50 222.07 69.60 224.98L69.60 235.27ZM59.11 226.61C59.11 226.61 55.28 228.53 55.28 233.12C55.28 237.43 57.85 240.80 63.61 240.80C66.93 240.80 69.08 239.02 69.08 239.02L67.26 235.27C67.26 235.27 65.81 236.02 63.94 236.02C61.27 236.02 60.52 234.48 60.52 232.70C60.52 231.72 60.85 230.92 61.27 230.31L67.26 229.19L67.26 225.54ZM95.58 240L101.00 240L101.00 224.55C101.00 218.56 99.55 215.80 94.92 215.80C92.95 215.80 90.57 217.67 90.57 217.67L91.22 221.89C91.22 221.89 92.86 221.04 93.84 221.04C95.43 221.04 95.58 222.03 95.58 224.65ZM103.67 221.89C103.67 221.89 105.31 221.04 106.29 221.04C107.70 221.04 107.98 221.84 108.03 223.81L108.03 240L113.45 240L113.45 224.55C113.45 218.56 112.00 215.80 107.37 215.80C105.40 215.80 103.02 217.67 103.02 217.67ZM83.08 240L88.51 240L88.51 216.60L83.08 216.60ZM117.81 246.60L148.09 246.60L148.09 241.59L117.81 241.59ZM159.28 230.92C159.28 230.92 161.43 231.86 161.43 233.40C161.43 235.09 160.35 235.79 158.01 235.79C155.30 235.79 152.58 234.38 152.58 234.38L151.13 239.16C151.13 239.16 153.61 240.80 158.01 240.80C163.96 240.80 167.00 237.85 167.00 233.73C167.00 228.72 161.71 226.75 161.71 226.75ZM159.42 225.63C159.42 225.63 157.17 224.51 157.17 222.87C157.17 221.47 157.97 220.81 159.93 220.81C162.08 220.81 165.13 221.42 165.13 221.42L165.78 216.60C165.78 216.60 163.44 215.80 159.93 215.80C154.50 215.80 151.60 218.89 151.60 222.54C151.60 227.83 156.89 229.80 156.89 229.80ZM186.47 232.28C186.47 238.97 188.30 240.56 195.04 240.56L195.04 235.32C192.69 235.32 192.13 234.20 192.13 231.62L192.13 204.85L186.47 204.85ZM208.33 240L213.99 240L213.99 209.67L208.33 214.63ZM198.08 215.01L201.21 218.47L214.79 206.30L208.33 206.30ZM221.25 221.32L224.38 221.32L224.38 240L230.05 240L230.05 221.32L234.96 221.32L234.96 216.60L221.25 216.60ZM230.05 214.26L230.05 212.95C230.05 210.23 231.68 209.34 234.96 209.34L234.96 204.10C227.28 204.10 224.38 206.39 224.38 212.43L224.38 214.26ZM246.57 230.50L258.22 229.23C258.22 229.23 258.69 227.55 258.69 225.35C258.69 219.31 255.27 215.80 249.38 215.80C243.57 215.80 238.42 220.15 238.42 228.72C238.42 235.83 242.35 240.80 249.52 240.80C255.27 240.80 258.36 238.78 258.36 238.78L257.47 234.62C257.47 234.62 253.73 236.02 250.22 236.02C245.96 236.02 243.85 233.96 243.85 228.72C243.85 221.89 246.43 220.30 249.38 220.30C252.18 220.30 253.54 222.07 253.54 225.40L253.54 225.68L246.01 226.85Z" fill="#fea100" style="fill: #fea100;"></path></g><g id="SvgjsG1597" rel="mainfill" name="symbol" xmlns:name="symbol_mainfill" transform="translate(53.27000570297241,-17.90850019454956) scale(1.5)" fill="#af8"><g fill="#af8"><polygon points="78.268,32.181 57.521,32.181 47.148,50.146 57.521,68.112 78.268,68.112 88.641,50.146  "></polygon><polygon points="21.732,52.129 11.359,70.095 21.732,88.061 42.478,88.061 52.851,70.095 42.478,52.129  "></polygon><polygon points="42.478,47.871 52.851,29.905 42.478,11.939 21.732,11.939 11.359,29.905 21.732,47.871  "></polygon></g></g></svg>